<svg xmlns:xlink="http://www.w3.org/1999/xlink" width="29" height="20" viewBox="0 0 29 20" fill="none" xmlns="http://www.w3.org/2000/svg" role="presentation"> <path fill-rule="evenodd" clip-rule="evenodd" d="M0.3125 1.71125C0.3125 0.948408 0.930907 0.330002 1.69375 0.330002H26.5562C27.3191 0.330002 27.9375 0.948408 27.9375 1.71125C27.9375 2.4741 27.3191 3.0925 26.5562 3.0925H1.69375C0.930907 3.0925 0.3125 2.4741 0.3125 1.71125ZM0.3125 9.99875C0.3125 9.23591 0.930907 8.6175 1.69375 8.6175H26.5562C27.3191 8.6175 27.9375 9.23591 27.9375 9.99875C27.9375 10.7616 27.3191 11.38 26.5562 11.38H1.69375C0.930907 11.38 0.3125 10.7616 0.3125 9.99875ZM0.3125 18.2863C0.3125 17.5234 0.930907 16.905 1.69375 16.905H26.5562C27.3191 16.905 27.9375 17.5234 27.9375 18.2863C27.9375 19.0491 27.3191 19.6675 26.5562 19.6675H1.69375C0.930907 19.6675 0.3125 19.0491 0.3125 18.2863Z" fill="#F2F2EB" stroke="#F2F2EB" stroke-width="0.6px" stroke-linecap="round" stroke-linejoin="round"></path></svg>