<svg xmlns:xlink="http://www.w3.org/1999/xlink" width="22" height="22" viewBox="0 0 22 22" fill="none" xmlns="http://www.w3.org/2000/svg"> <path d="M3.36575 1.11599L11.0885 8.83872L18.7898 1.13736C19.374 0.553191 20.3211 0.553191 20.9053 1.13736C21.4895 1.72153 21.4895 2.66866 20.9053 3.25283L13.204 10.9542L20.8839 18.6342C21.5052 19.2555 21.5052 20.2628 20.8839 20.8841C20.2626 21.5053 19.2553 21.5053 18.6341 20.8841L10.9541 13.2041L3.25271 20.9054C2.66854 21.4896 1.72141 21.4896 1.13724 20.9054C0.553068 20.3213 0.553068 19.3741 1.13724 18.79L8.8386 11.0886L1.11587 3.36587C0.494581 2.74458 0.49458 1.73728 1.11587 1.11599C1.73716 0.494703 2.74446 0.494702 3.36575 1.11599Z" fill="#F2F2EB"></path></svg>