<svg xmlns:xlink="http://www.w3.org/1999/xlink" width="30" height="30" viewBox="0 0 30 30" fill="none" xmlns="http://www.w3.org/2000/svg"> <path d="M15.0483 13.3197L18.9984 9.36966C19.4555 8.91257 20.1966 8.91257 20.6537 9.36966C21.1107 9.82676 21.1107 10.5679 20.6537 11.025L16.7036 14.975L20.642 18.9134C21.1193 19.3907 21.1193 20.1647 20.642 20.642C20.1647 21.1193 19.3907 21.1193 18.9134 20.642L14.975 16.7036L11.025 20.6537C10.5679 21.1108 9.82676 21.1107 9.36966 20.6537C8.91257 20.1966 8.91257 19.4555 9.36966 18.9984L13.3197 15.0483L9.35801 11.0866C8.88066 10.6093 8.88066 9.83535 9.35801 9.35801C9.83535 8.88066 10.6093 8.88066 11.0866 9.35801L15.0483 13.3197Z" fill="#1B1E1E"></path><path fill-rule="evenodd" clip-rule="evenodd" d="M15.0483 13.3197L11.0866 9.35801C10.6093 8.88066 9.83535 8.88066 9.35801 9.35801C8.88066 9.83535 8.88066 10.6093 9.35801 11.0866L13.3197 15.0483L9.36966 18.9984C8.91257 19.4555 8.91257 20.1966 9.36966 20.6537C9.82676 21.1107 10.5679 21.1108 11.025 20.6537L14.975 16.7036L18.9134 20.642C19.3907 21.1193 20.1647 21.1193 20.642 20.642C21.1193 20.1647 21.1193 19.3907 20.642 18.9134L16.7036 14.975L20.6537 11.025C21.1107 10.5679 21.1107 9.82676 20.6537 9.36966C20.1966 8.91257 19.4555 8.91257 18.9984 9.36966L15.0483 13.3197Z" fill="#1B1E1E"></path></svg>