<svg xmlns:xlink="http://www.w3.org/1999/xlink" class="logo" xmlns="http://www.w3.org/2000/svg" width="128" height="40" fill="none" viewBox="0 0 128 40" itemprop="logo" role="presentation"> <path class="logo__path" fill="#F2F2EB" d="M117.609 39.804c-5.244 0-10.489-4.81-10.489-13.85 0-8.404 4.176-13.69 10.247-13.69 6.75 0 9.761 6.343 9.615 13.426h-13.257c.291 6.608 2.962 9.78 6.167 9.78 2.088 0 4.176-1.375 6.021-4.124l1.117.317c-.874 3.7-4.224 8.141-9.421 8.141Zm-3.836-16.493h6.799c-.049-4.281-1.069-8.722-3.302-8.722-2.283 0-3.351 4.705-3.497 8.722ZM98.008 39.329a10.775 10.775 0 0 1-1.408-3.172c-1.408 2.115-3.448 3.753-6.022 3.753-4.516 0-8.352-4.493-8.352-13.426 0-9.198 4.516-14.062 9.76-14.062 1.506 0 2.963.423 4.322 1.216v-7.03c0-3.225-1.456-3.33-3.108-3.225l-.242-1.374 9.906-1.903V33.99c0 3.277 1.506 3.7 3.157 3.912v1.427h-8.013Zm-8.935-14.854c0 6.766 1.165 11.47 4.128 11.47 1.165 0 2.185-.792 3.108-2.22V22.36c-.05-4.651-1.069-7.453-3.4-7.453-2.282 0-3.836 3.066-3.836 9.568ZM68.748 37.902c1.7-.212 3.157-.74 3.157-3.912V17.92c0-3.172-1.457-3.753-3.157-3.912v-1.427h9.518V33.99c0 3.277 1.554 3.7 3.157 3.912v1.427H68.748v-1.427ZM70.642 4.44c0-2.431 1.797-4.44 3.982-4.44 2.137 0 3.934 2.009 3.934 4.44 0 2.432-1.797 4.44-3.934 4.44-2.137 0-3.982-2.008-3.982-4.44ZM32.492 0c-2.185 0-3.982 2.009-3.982 4.44 0 2.432 1.845 4.44 3.982 4.44 2.137 0 3.933-2.008 3.933-4.44C36.425 2.01 34.63 0 32.492 0ZM46.303 37.795c1.796-.211 3.593-.634 3.593-4.176V3.7h-1.311c-5.099 0-6.799 3.595-7.43 7.296l-1.457-.053.34-7.718.097-2.009h26.418l.097 2.01.34 7.717-1.457.053c-.631-3.7-2.38-7.295-7.479-7.295h-1.36v29.92c0 3.541 1.846 3.964 3.594 4.175v1.533H46.303v-1.533ZM36.232 39.329h-7.09v-26.43h7.09v26.43ZM17.47 1.797h7.528V39.33H17.47V23.365H7.71v15.964H.183V1.797H7.71v15.277h9.76V1.797Z"></path></svg>